<svg width="12" height="12" viewBox="0 0 12 12" fill="none" xmlns="http://www.w3.org/2000/svg">
<path fill-rule="evenodd" clip-rule="evenodd" d="M1.26407 2.00014C1.19416 2.00028 1.12716 2.02807 1.07768 2.07745C1.0282 2.12684 1.00028 2.19379 1 2.26369C0.999866 2.29848 1.00659 2.33296 1.0198 2.36514C1.033 2.39733 1.05242 2.42659 1.07695 2.45127C1.10147 2.47594 1.13063 2.49553 1.16273 2.50892C1.19484 2.52231 1.22928 2.52924 1.26407 2.52931H2.59577L3.01952 3.79486C3.01969 3.79557 3.01987 3.79627 3.02005 3.79696L3.99415 6.70686C3.73557 6.83862 3.55696 7.10862 3.55696 7.41638C3.55696 7.85171 3.91438 8.21117 4.34968 8.21117H4.48249C4.44118 8.3108 4.41841 8.41984 4.41841 8.53363C4.41841 9.0006 4.80319 9.38681 5.27004 9.38681C5.73689 9.38681 6.1196 9.0006 6.1196 8.53363C6.1196 8.41984 6.09666 8.3108 6.05552 8.21117H6.94745C6.90615 8.3108 6.88286 8.41984 6.88286 8.53363C6.88286 9.0006 7.26764 9.38681 7.73449 9.38681C8.20134 9.38681 8.58405 9.0006 8.58405 8.53363C8.58405 8.41984 8.56161 8.3108 8.52049 8.21117H8.67035C8.74016 8.2109 8.80703 8.18304 8.8564 8.13368C8.90577 8.08432 8.93362 8.01744 8.9339 7.94763C8.93403 7.91289 8.92732 7.87846 8.91415 7.8463C8.90098 7.81415 8.88161 7.78491 8.85713 7.76024C8.83266 7.73558 8.80357 7.71597 8.77152 7.70255C8.73947 7.68913 8.70509 7.68215 8.67035 7.68202H5.29174H5.24782H4.34968C4.19932 7.68202 4.08613 7.56865 4.08613 7.4164C4.08613 7.26414 4.19932 7.15078 4.34968 7.15078H8.67035C8.69002 7.15056 8.7096 7.14815 8.72874 7.14358C8.7359 7.14165 8.74297 7.13941 8.74993 7.13688C8.76179 7.13306 8.77336 7.1284 8.78456 7.12294C8.7916 7.11963 8.7985 7.11601 8.80522 7.11209C8.81647 7.10515 8.82718 7.09738 8.83726 7.08883C8.84258 7.08489 8.84775 7.08075 8.85276 7.07642C8.86676 7.06302 8.87923 7.04812 8.88997 7.03198C8.89213 7.02808 8.8942 7.02412 8.89616 7.0201C8.90454 7.00631 8.91163 6.99178 8.91735 6.97669C8.91826 6.9748 8.91914 6.9729 8.92 6.97099L9.98299 3.79697C9.99643 3.75721 10.0002 3.71482 9.99403 3.6733C9.98786 3.63178 9.97189 3.59233 9.94746 3.55821C9.92302 3.52408 9.89082 3.49625 9.85351 3.47703C9.8162 3.4578 9.77485 3.44773 9.73287 3.44764H3.46194L3.03767 2.18002C3.03636 2.17672 3.03499 2.17346 3.03354 2.17022C3.02953 2.15995 3.02487 2.14994 3.0196 2.14025C3.01608 2.13371 3.01228 2.12733 3.00822 2.12112C3.004 2.1149 2.99952 2.10886 2.99478 2.10302C2.99133 2.09807 2.98772 2.09325 2.98394 2.08855C2.97558 2.07949 2.9666 2.07103 2.95706 2.06323C2.95124 2.05832 2.9452 2.05367 2.93897 2.04929C2.92925 2.04223 2.91906 2.03584 2.90848 2.03016C2.90239 2.02715 2.89618 2.02438 2.88988 2.02186C2.88277 2.01878 2.87553 2.01601 2.86818 2.01356C2.86188 2.01142 2.8555 2.00952 2.84905 2.00786C2.84785 2.00767 2.84664 2.0075 2.84543 2.00733C2.83623 2.0051 2.82692 2.00336 2.81753 2.00213C2.81682 2.00213 2.81611 2.00213 2.81541 2.00213C2.80786 2.00127 2.80028 2.00074 2.79268 2.00053C2.79028 2.00032 2.78787 2.00014 2.78546 2L1.26407 2.00014ZM3.63912 3.97677H9.36331L8.47861 6.62157H4.52382L3.63912 3.97677ZM5.27003 8.21113C5.44996 8.21113 5.5899 8.35167 5.5899 8.5336C5.5899 8.71552 5.44996 8.85761 5.27003 8.85761C5.0901 8.85761 4.94756 8.71552 4.94756 8.5336C4.94756 8.35167 5.0901 8.21113 5.27003 8.21113ZM7.73447 8.21113C7.9144 8.21113 8.05487 8.35167 8.05487 8.5336C8.05487 8.71552 7.9144 8.85761 7.73447 8.85761C7.55455 8.85761 7.41253 8.71552 7.41253 8.5336C7.41253 8.35167 7.55455 8.21113 7.73447 8.21113Z" fill="white"/>
</svg>
