<svg width="169" height="80" viewBox="0 0 169 80" fill="none" xmlns="http://www.w3.org/2000/svg">
<path d="M47.6178 37C49.3674 37 50.7858 38.4184 50.7858 40.168V58.3839C50.7858 62.2239 49.7617 65.2319 47.7137 67.4079C45.6977 69.5839 42.6898 70.6719 38.6897 70.6719C34.6897 70.6719 31.6658 69.5839 29.6177 67.4079C27.6017 65.2319 26.5938 62.2239 26.5938 58.3839V43.336C26.5938 39.8367 29.4305 37 32.9297 37V58.3839C32.9297 60.3679 33.3937 61.9199 34.3217 63.0399C35.2498 64.1599 36.7057 64.7199 38.6897 64.7199C40.6737 64.7199 42.1298 64.1599 43.0578 63.0399C43.9858 61.9199 44.4497 60.3679 44.4497 58.3839V37H46C46 37 46.9992 37 47.6178 37ZM74.1283 66.5439H73.2644C73.0084 67.0879 72.6884 67.6159 72.3044 68.1279C71.9524 68.6079 71.4724 69.0399 70.8643 69.4239C70.2883 69.8079 69.5844 70.1119 68.7523 70.3359C67.9524 70.5599 66.9764 70.6719 65.8244 70.6719C64.3524 70.6719 62.9763 70.4159 61.6964 69.9039C60.4483 69.3599 59.3443 68.5759 58.3843 67.5519C57.4564 66.4959 56.7204 65.2159 56.1763 63.7119C55.6644 62.2079 55.4084 60.4799 55.4084 58.5279V57.6639C55.4084 55.7439 55.6803 54.0319 56.2243 52.5279C56.8004 51.0239 57.5684 49.7599 58.5284 48.7359C59.5204 47.6799 60.6564 46.8799 61.9364 46.3359C63.2484 45.7919 64.6244 45.5199 66.0644 45.5199C67.9843 45.5199 69.5044 45.8879 70.6244 46.6239C71.7444 47.3279 72.6244 48.3359 73.2644 49.6479H74.1283V46.1919H80.1763V75.8559C80.1763 76.9439 79.8243 77.8399 79.1203 78.5439C78.4483 79.2479 77.5684 79.5999 76.4804 79.5999H60.4484V73.8399H72.8324C73.6964 73.8399 74.1283 73.3599 74.1283 72.3999V66.5439ZM67.7924 64.9119C69.6804 64.9119 71.2004 64.3199 72.3524 63.1359C73.5364 61.9199 74.1283 60.3359 74.1283 58.3839V57.8079C74.1283 55.8559 73.5364 54.2879 72.3524 53.1039C71.2004 51.8879 69.6804 51.2799 67.7924 51.2799C65.9044 51.2799 64.3683 51.8719 63.1843 53.0559C62.0323 54.2079 61.4564 55.7919 61.4564 57.8079V58.3839C61.4564 60.3999 62.0323 61.9999 63.1843 63.1839C64.3683 64.3359 65.9044 64.9119 67.7924 64.9119ZM101.935 66.5439C101.295 68.0479 100.399 69.1199 99.247 69.7599C98.095 70.3679 96.7511 70.6719 95.215 70.6719C93.775 70.6719 92.415 70.3999 91.135 69.8559C89.887 69.3119 88.7831 68.5119 87.8231 67.4559C86.8631 66.3999 86.0951 65.1199 85.5191 63.6159C84.9751 62.1119 84.7031 60.3999 84.7031 58.4799V57.7119C84.7031 55.8239 84.9751 54.1279 85.5191 52.6239C86.063 51.1199 86.799 49.8399 87.7271 48.7839C88.6551 47.7279 89.727 46.9279 90.943 46.3839C92.191 45.8079 93.5191 45.5199 94.927 45.5199C96.623 45.5199 97.983 45.8079 99.007 46.3839C100.063 46.9599 100.895 47.8559 101.503 49.0719H102.367V46.1919H108.415V62.7999C108.415 63.7599 108.847 64.2399 109.711 64.2399H110.623V69.9999H106.495C105.407 69.9999 104.511 69.6799 103.807 69.0399C103.135 68.3999 102.799 67.5679 102.799 66.5439H101.935ZM96.559 64.9119C98.319 64.9119 99.7271 64.3359 100.783 63.1839C101.839 61.9999 102.367 60.3999 102.367 58.3839V57.8079C102.367 55.7919 101.839 54.2079 100.783 53.0559C99.7271 51.8719 98.319 51.2799 96.559 51.2799C94.799 51.2799 93.391 51.8719 92.335 53.0559C91.279 54.2079 90.751 55.7919 90.751 57.8079V58.3839C90.751 60.3999 91.279 61.9999 92.335 63.1839C93.391 64.3359 94.799 64.9119 96.559 64.9119ZM139.246 58.3839C139.246 60.3679 138.91 62.1279 138.238 63.6639C137.566 65.1679 136.654 66.4479 135.502 67.5039C134.35 68.5279 133.022 69.3119 131.518 69.8559C130.046 70.3999 128.494 70.6719 126.862 70.6719C125.23 70.6719 123.662 70.3999 122.158 69.8559C120.686 69.3119 119.374 68.5279 118.222 67.5039C117.07 66.4479 116.158 65.1679 115.486 63.6639C114.814 62.1279 114.478 60.3679 114.478 58.3839V57.8079C114.478 55.8559 114.814 54.1279 115.486 52.6239C116.158 51.0879 117.07 49.7919 118.222 48.7359C119.374 47.6799 120.686 46.8799 122.158 46.3359C123.662 45.7919 125.23 45.5199 126.862 45.5199C128.494 45.5199 130.046 45.7919 131.518 46.3359C133.022 46.8799 134.35 47.6799 135.502 48.7359C136.654 49.7919 137.566 51.0879 138.238 52.6239C138.91 54.1279 139.246 55.8559 139.246 57.8079V58.3839ZM126.862 64.9119C127.726 64.9119 128.542 64.7679 129.31 64.4799C130.078 64.1919 130.75 63.7759 131.326 63.2319C131.902 62.6879 132.35 62.0319 132.67 61.2639C133.022 60.4639 133.198 59.5679 133.198 58.5759V57.6159C133.198 56.6239 133.022 55.7439 132.67 54.9759C132.35 54.1759 131.902 53.5039 131.326 52.9599C130.75 52.4159 130.078 51.9999 129.31 51.7119C128.542 51.4239 127.726 51.2799 126.862 51.2799C125.998 51.2799 125.182 51.4239 124.414 51.7119C123.646 51.9999 122.974 52.4159 122.398 52.9599C121.822 53.5039 121.358 54.1759 121.006 54.9759C120.686 55.7439 120.526 56.6239 120.526 57.6159V58.5759C120.526 59.5679 120.686 60.4639 121.006 61.2639C121.358 62.0319 121.822 62.6879 122.398 63.2319C122.974 63.7759 123.646 64.1919 124.414 64.4799C125.182 64.7679 125.998 64.9119 126.862 64.9119ZM168.637 58.3839C168.637 60.3679 168.301 62.1279 167.629 63.6639C166.957 65.1679 166.045 66.4479 164.893 67.5039C163.741 68.5279 162.413 69.3119 160.909 69.8559C159.437 70.3999 157.885 70.6719 156.253 70.6719C154.621 70.6719 153.053 70.3999 151.549 69.8559C150.077 69.3119 148.765 68.5279 147.613 67.5039C146.461 66.4479 145.549 65.1679 144.877 63.6639C144.205 62.1279 143.869 60.3679 143.869 58.3839V57.8079C143.869 55.8559 144.205 54.1279 144.877 52.6239C145.549 51.0879 146.461 49.7919 147.613 48.7359C148.765 47.6799 150.077 46.8799 151.549 46.3359C153.053 45.7919 154.621 45.5199 156.253 45.5199C157.885 45.5199 159.437 45.7919 160.909 46.3359C162.413 46.8799 163.741 47.6799 164.893 48.7359C166.045 49.7919 166.957 51.0879 167.629 52.6239C168.301 54.1279 168.637 55.8559 168.637 57.8079V58.3839ZM156.253 64.9119C157.117 64.9119 157.933 64.7679 158.701 64.4799C159.469 64.1919 160.141 63.7759 160.717 63.2319C161.293 62.6879 161.741 62.0319 162.061 61.2639C162.413 60.4639 162.589 59.5679 162.589 58.5759V57.6159C162.589 56.6239 162.413 55.7439 162.061 54.9759C161.741 54.1759 161.293 53.5039 160.717 52.9599C160.141 52.4159 159.469 51.9999 158.701 51.7119C157.933 51.4239 157.117 51.2799 156.253 51.2799C155.389 51.2799 154.573 51.4239 153.805 51.7119C153.037 51.9999 152.365 52.4159 151.789 52.9599C151.213 53.5039 150.749 54.1759 150.397 54.9759C150.077 55.7439 149.917 56.6239 149.917 57.6159V58.5759C149.917 59.5679 150.077 60.4639 150.397 61.2639C150.749 62.0319 151.213 62.6879 151.789 63.2319C152.365 63.7759 153.037 64.1919 153.805 64.4799C154.573 64.7679 155.389 64.9119 156.253 64.9119Z" fill="#669F39"/>
<path d="M23.8113 13.91C23.8113 13.91 31.3513 8.87 24.1013 0C17.6913 8.4 23.8113 13.91 23.8113 13.91Z" fill="#669F39"/>
<path d="M36.1717 24.0201C36.1717 24.0201 44.5017 20.4201 38.9717 10.3901C31.1517 17.4901 36.1717 24.0201 36.1717 24.0201Z" fill="#669F39"/>
<path d="M24.0094 15.1326C24.0094 15.1326 15.457 12.1126 12.6924 23.2286C23.2502 23.3384 24.0094 15.1326 24.0094 15.1326Z" fill="#669F39"/>
<path d="M13.8594 11.71C13.8594 11.71 9.32937 3.85003 -0.00062561 10.51C7.95937 17.46 13.8594 11.71 13.8594 11.71Z" fill="#669F39"/>
<path d="M35.6704 24.7165C35.6704 24.7165 30.4251 17.3178 21.7594 24.8165C30.3285 30.9853 35.6704 24.7165 35.6704 24.7165Z" fill="#669F39"/>
<path d="M38.9312 37C38.9312 37 41.7072 15.8736 12 11" stroke="#669F39" stroke-miterlimit="10"/>
</svg>
